<?xml version="1.0" encoding="UTF-8"?>
<svg id="Layer_2" data-name="Layer 2" xmlns="http://www.w3.org/2000/svg" viewBox="0 0 468.56 636.74">
  <defs>
    <style>
      .cls-1, .cls-2, .cls-3 {
        fill-rule: evenodd;
      }

      .cls-2 {
        stroke-width: 5.53px;
      }

      .cls-2, .cls-3 {
        fill: #008453;
        stroke: #f7d45c;
        stroke-miterlimit: 2.61;
      }

      .cls-3 {
        stroke-width: 5.42px;
      }
    </style>
  </defs>
  <g id="Layer_1-2" data-name="Layer 1">
    <g>
      <g>
        <path class="cls-1" d="M.2,441.21l-.06-2.92c.36,0,.72-.07,1.07-.07.96,0,2.03.07,3.04.15,2.63.15,4.12.22,4.53.22,1.55,0,3.1-.08,4.59-.08,1.49-.07,2.8-.15,3.94-.15,1.19-.07,1.97-.07,2.39-.07l-.06.45.06,2.1v.3c-1.07.22-2.21.3-3.4.3-1.07,0-1.79.22-2.15.82-.24.3-.36,1.8-.36,4.34,0,.75,0,1.42.06,1.87v1.35l-.06,3.44.18,2.92-.12,6.29.36,9.21c.12,2.62.6,4.79,1.43,6.59.6,1.27,1.49,2.32,2.63,2.99,1.61,1.05,3.22,1.57,4.77,1.57,1.91,0,3.64-.3,5.25-.9.95-.37,1.85-.9,2.68-1.65.84-.82,1.43-1.5,1.73-2.17.72-1.27,1.19-2.55,1.49-3.74.36-1.57.54-4.12.54-7.49,0-5.84-.24-12.5-.78-19.91l-.12-1.87c-.06-1.5-.24-2.4-.66-2.92-.6-.75-1.31-1.12-2.09-1.12l-2.74.07-.36-.15.06-2.77h2.33l5.55.3c1.91,0,3.64-.07,5.37-.3l.48.07c.12.82.18,1.35.18,1.65s-.06.6-.12.97c-.72.3-1.49.37-2.27.45-1.31.22-2.03.37-2.15.52-.3.3-.42.75-.42,1.35,0,.45.06,1.12.12,1.95,0,.6.06,1.65.06,3.14v2.02c0,.52.06.97.06,1.5.06,1.8.12,3.52.12,5.39l.3,7.41c0,4.94-.12,8.31-.42,9.96-.24,1.72-.6,2.99-1.07,3.97-.72,1.5-1.73,2.84-3.1,4.04-1.31,1.27-2.92,2.25-4.95,2.99-1.97.67-4.3,1.05-6.92,1.05-2.98,0-5.61-.52-7.76-1.5-2.15-1.05-3.76-2.4-4.89-4.04-1.07-1.65-1.85-3.74-2.27-6.36-.24-1.8-.42-4.42-.42-7.79v-17.44c0-4.12-.18-6.44-.48-6.96-.42-.75-1.73-1.2-3.94-1.27-.54,0-.9-.08-1.25-.08H.2ZM44.7,440.99l-.12-2.55h2.51l.84-.08c1.19-.07,1.97-.07,2.45-.07.18,0,.89,0,2.03.07h.66c.18,0,.78,0,1.79-.07,1.07,0,1.67-.07,1.79-.07.24,0,.54.07.95.07,2.98,3.44,5.43,6.36,7.28,8.83,1.91,2.47,8.77,11.08,20.64,25.9v-.97l-.12-4.19c-.06-2.55-.12-4.49-.24-5.99-.06-1.42-.12-3.14-.18-5.17,0-2.02-.06-3.82-.18-5.46-.24-3.22-.36-5.09-.36-5.54,0-1.57-.18-2.54-.42-2.92-.42-.52-1.31-.9-2.8-1.2-1.07-.22-1.85-.52-2.39-.82l.06-2.17.72-.15,5.73-.15,6.32-.3h1.25v2.4c-.42.3-.89.52-1.37.67-1.19.37-1.91.6-2.09.75-.95.67-1.49,1.12-1.61,1.27-.12.3-.24.75-.24,1.35,0,.15,0,.67.06,1.57,0,.45.06,1.42.06,3.07,0,3.52.06,6.36.24,8.38,0,.67.06,1.42.06,2.25l.36,12.88v6.36l.12,1.95-.12,1.95c.06.97.12,1.57.12,1.8v1.95l-3.34.15-3.46-4.49-7.1-8.83-4.95-6.21-3.64-4.72c-2.39-2.92-4.53-5.46-6.44-7.71l-4.77-5.39.3,13.55v5.17l.18,4.79c.06,2.02.12,4.12.3,6.51.06.6.12,1.05.18,1.27.06.3.12.67.3,1.12.78.37,2.45.6,4.95.82.18,0,.48.07.78.22l.12,3.07-1.13.07c-.66,0-2.57-.22-5.91-.6-3.1.08-5.19.15-6.2.22-1.01.07-1.61.15-1.67.15-.24,0-.6-.07-.95-.15-.06-.6-.06-1.05-.06-1.5v-1.35c.54-.15,1.01-.22,1.37-.22.12,0,.48.08,1.13.08,1.61,0,2.57-.15,2.92-.45.3-.3.42-1.12.48-2.47.12-3.82.18-6.21.18-7.04v-2.02l.06-11.9-.06-7.41c-.06-2.84-.18-4.79-.48-5.91-.12-.52-.3-1.05-.66-1.42-.66-.9-1.43-1.57-2.27-1.95-.48-.3-1.79-.67-3.94-1.05h0ZM97.15,485.46v-2.62c.42-.15,1.01-.37,1.97-.6,1.25-.45,2.21-.82,2.8-1.27.36-.75.54-1.8.54-3.14v-4.27l.06-8.38-.06-1.95c.12-4.87.18-7.34.18-7.49v-4.87l.06-1.95-.12-4.19-.06-1.57c0-.22-.06-.6-.18-1.12-.84-.52-2.15-.75-3.94-.9-.42,0-.78-.07-1.01-.07l-.06-3.22,8.35.45c1.01.07,1.61.07,1.91.07,1.13,0,2.98-.07,5.49-.3,1.43-.15,2.33-.22,2.68-.22v1.2c0,.37,0,.9-.06,1.57-.78.37-1.67.67-2.68.97-.95.3-1.79.6-2.45.9-.12.6-.18,1.57-.18,2.77,0,1.05.06,1.87.12,2.55-.06,4.12-.12,7.26-.12,9.51l.06,9.66-.06,4.87v8.68c0,.22.06.52.12.9,1.19.3,2.27.52,3.22.6.18.07.78.15,1.79.3.06.75.12,1.35.12,1.87v1.2c-.3,0-.48.08-.6.08-.66.07-1.01.07-1.07.07-.18,0-.42-.07-.78-.15-.3,0-1.55-.15-3.88-.45l-5.19-.07c-1.01,0-2.51.07-4.48.37-1.25.15-2.09.22-2.51.22h0ZM117.73,440.91v-3.14c1.01,0,1.61.08,1.85.08,2.39.37,5.49.52,9.43.52.54,0,1.73-.07,3.52-.22,1.31-.15,2.27-.22,2.86-.37h2.15c.06,1.8.06,2.77.06,2.99-1.91.3-3.1.52-3.4.6-.84.3-1.49.67-1.91,1.2-.18.22-.3.52-.3.9,0,.3,0,.52.06.82l.95,3.14c.66,2.55,1.79,5.91,3.4,10.18l3.28,9.43c.66,1.8,1.25,3.52,1.79,5.17l1.67-5.17,3.46-12.13.84-2.55c.06-.37.24-.82.36-1.5.54-2.17.95-3.82,1.25-4.94.36-1.12.54-2.02.54-2.77,0-.45-.18-.9-.54-1.2-.6-.52-1.49-.9-2.8-1.05-.24-.08-.6-.15-1.07-.22-.42,0-.83-.08-1.19-.15-.12-.52-.18-.9-.18-1.12,0-.37.06-.9.12-1.72.36,0,1.37.07,2.98.3,1.67.23,3.28.3,4.89.3s2.98-.07,4.12-.3c1.13-.15,2.09-.3,2.8-.3v2.54c-2.51,1.12-4,1.87-4.42,2.32-.3.22-.54.6-.78,1.2-.78,1.65-1.91,4.94-3.4,9.88l-3.76,12.05c-.36,1.2-.72,2.47-1.13,3.74-.42,1.27-.89,2.77-1.31,4.27-.12.37-.6,1.87-1.37,4.42l-.3.67c-.89,3.44-1.49,5.76-1.97,7.11-.72.07-1.25.07-1.43.07-.36,0-.9,0-1.55-.07-.18-.75-.42-1.5-.6-2.25-.24-.75-1.07-3.37-2.51-7.94l-5.49-15.5-3.28-9.96c-1.67-4.57-2.62-6.96-2.74-7.26-.36-.6-.72-1.05-1.13-1.35-.42-.22-1.25-.45-2.57-.6l-1.25-.15h0ZM159.38,438.14c1.13.08,2.09.15,2.86.3,1.55.3,3.34.45,5.37.45.72,0,2.51-.07,5.37-.22,4.36-.22,8.23-.3,11.75-.3l5.25-.07c1.19,0,2.92.15,5.25.52.36.52.54,1.2.54,2.02v7.49l.06,1.5v.67l-1.19.08c-.18,0-.48,0-1.01-.08-.18-.52-.42-1.2-.72-2.17l-1.19-2.62c-.42-1.12-1.07-2.25-1.85-3.37-.54-.15-1.13-.3-1.91-.3-.18,0-.78-.08-1.79-.15-1.79-.22-3.76-.3-5.85-.3-2.33,0-4.47.08-6.32.15v17.82c.48.08.89.15,1.25.15,3.46,0,5.91-.07,7.4-.22,1.43-.22,2.39-.45,2.68-.75.36-.3.72-.82.95-1.57.18-.52.54-2.32,1.01-5.39h2.09c.06,2.17.12,3.82.12,4.94v4.94c-.06.75-.06,1.27-.06,1.72,0,.67.06,1.72.12,3.14.06,1.42.06,2.55.06,3.22v.82h-2.09c-.06-.37-.24-1.2-.42-2.4-.42-2.25-.78-3.67-1.07-4.27-.24-.37-.6-.75-1.13-.97-.42-.15-1.85-.22-4.3-.22-2.98,0-5.13.07-6.62.3v16.32c0,.97.24,1.57.78,1.95.78.52,3.22.75,7.34.75,2.74,0,5.01-.22,6.92-.75,1.31-.37,2.45-1.2,3.46-2.47,1.31-1.65,2.39-3.89,3.28-6.89.6-.07,1.07-.07,1.49-.07h.95c-.06.67-.12,1.12-.12,1.57l-.18,1.12-1.07,6.89-.54,4.12c-1.25.08-2.27.15-2.98.15-1.07,0-4-.15-8.71-.37-3.34-.15-7.34-.22-11.99-.22-2.33,0-5.19.15-8.59.37h-1.25l-3.52.15v-2.55c.36-.15,1.13-.22,2.21-.37,2.03-.3,3.4-.75,4.18-1.2.18-.67.3-1.57.3-2.69v-3.22l-.06-13.77v-4.12l-.12-5.84.06-4.12-.3-4.57c0-.08,0-.37-.06-.75-.18-.22-.48-.37-.84-.45-.24-.07-.54-.15-.89-.22-1.13-.3-2.15-.45-3.22-.52-.36,0-.78-.07-1.25-.15l.12-2.92h0ZM202.99,483.14c.48-.3,1.25-.6,2.21-.75,1.01-.15,1.91-.45,2.68-.75.12-.52.18-.9.18-1.12.06-.3.06-1.5.06-3.44v-8.16l.06-4.42-.06-3.37.06-1.95c.06-2.69.06-5.17.06-7.49,0-5.02-.06-8.23-.12-9.66l-1.73-.45c-1.55-.15-2.57-.22-3.1-.37l-.06-2.17.12-.37c.95-.22,1.85-.3,2.69-.3.42,0,1.37,0,2.68-.07,1.43.15,2.15.22,2.27.22l1.55-.15,3.64-.15c2.27-.3,4.71-.45,7.22-.45,4,0,7.16,1.27,9.49,3.82,2.33,2.55,3.52,5.46,3.52,8.76,0,2.4-.6,4.64-1.91,6.66-1.25,2.02-3.16,3.52-5.79,4.57.24.52.54,1.12.9,1.8.84,1.42,1.49,2.7,1.97,3.67l4.65,9.51c1.19,2.47,1.91,3.97,2.27,4.34.36.45,1.13.9,2.27,1.42.84.37,1.49.82,1.97,1.2.12.45.18.82.18,1.12v.82h-1.37l-1.55-.15h-1.19c-.6-.07-1.37-.15-2.27-.15l-2.92-.07c-.24,0-.9.07-2.03.22-.54.07-.95.07-1.25.15l-1.01-2.4c-.84-1.8-1.37-3.22-1.73-4.12-.84-2.32-2.33-6.06-4.36-11.23-1.01-2.4-1.67-3.74-2.03-4.04-.6-.52-1.61-.75-3.04-.75-.36,0-1.01,0-1.97.07-.06.67-.12,1.57-.12,2.55l.18,8.08-.18,6.81c.54.45,1.25.75,2.09.97,1.55.37,2.86.82,3.94,1.35,0,1.2-.06,2.17-.12,2.77-.36,0-.6-.07-.72-.07l-1.19.07c-4.18-.45-6.62-.67-7.4-.67h-1.07l-4.06.37c-1.19.15-2.33.22-3.34.22h-1.25c-.06-.6-.06-.97-.06-1.2s.06-.6.12-1.12h0ZM216.06,459.55c.95.08,1.61.08,2.03.08,3.34,0,5.67-.75,7.04-2.25,1.37-1.5,2.09-3.44,2.09-5.91,0-1.57-.18-2.99-.48-4.34-.36-1.35-.78-2.32-1.31-2.99-.72-.97-1.61-1.65-2.8-2.17-.84-.37-2.21-.52-4.06-.52-.89,0-1.67.07-2.33.15l-.06.75.06,4.87-.12,2.99.06,3.97c-.06,1.12-.06,2.62-.12,4.34v1.05h0ZM266.77,439.19c.24.82.42,2.1.54,3.74.24,2.55.36,4.49.36,5.84,0,.45-.06.97-.12,1.42l-.3.15-2.09-.23-.36-.07c-.84-3.22-1.73-5.39-2.57-6.51-1.49-1.95-3.22-2.92-5.25-2.92-1.91,0-3.4.6-4.53,1.87-1.13,1.27-1.67,2.84-1.67,4.64,0,1.57.54,3.07,1.67,4.49,1.07,1.5,3.4,2.84,6.98,4.12,1.19.45,2.63,1.12,4.3,2.1,1.67.97,2.92,2.02,3.82,3.14,1.13,1.57,1.97,2.99,2.39,4.42.42,1.42.66,3.14.66,5.24,0,2.32-.36,4.57-1.01,6.81-.36,1.12-.95,2.25-1.79,3.29-.6.75-1.49,1.57-2.68,2.55-1.25,1.05-2.51,1.72-3.82,2.17-1.31.45-3.04.67-5.07.67-1.37,0-2.98-.22-4.89-.75l-3.52-1.27c-.95-.3-1.55-.67-1.85-.9-.06-.07-.18-.3-.24-.67v-.45c0-.22-.06-1.95-.12-5.02-.06-1.57-.06-2.7-.06-3.37v-1.35l2.68-.08c.95,2.7,1.55,4.34,1.79,4.94.6,1.2,1.31,2.25,2.03,2.99.72.82,1.61,1.42,2.63,1.87.95.45,2.09.67,3.28.67,1.01,0,2.21-.3,3.46-.82,1.25-.6,2.27-1.5,3.04-2.77.78-1.27,1.13-2.7,1.13-4.12,0-1.8-.66-3.52-1.97-5.02-.84-.97-3.04-2.25-6.62-3.82-3.58-1.57-6.03-2.99-7.4-4.27-1.37-1.2-2.51-2.92-3.28-5.02-.78-2.02-1.19-4.04-1.19-5.99,0-3.89,1.13-7.19,3.34-9.88,2.21-2.7,5.49-4.04,9.79-4.04.95,0,2.33.22,4.18.6,1.07.3,2.57.75,4.36,1.57h0ZM274.95,485.46v-2.62c.42-.15,1.01-.37,1.97-.6,1.25-.45,2.21-.82,2.8-1.27.36-.75.54-1.8.54-3.14v-4.27l.06-8.38-.06-1.95c.12-4.87.18-7.34.18-7.49v-4.87l.06-1.95-.12-4.19-.06-1.57c0-.22-.06-.6-.18-1.12-.84-.52-2.15-.75-3.94-.9-.42,0-.78-.07-1.01-.07l-.06-3.22,8.35.45c1.01.07,1.61.07,1.91.07,1.13,0,2.98-.07,5.49-.3,1.43-.15,2.33-.22,2.68-.22v1.2c0,.37,0,.9-.06,1.57-.78.37-1.67.67-2.69.97-.95.3-1.79.6-2.45.9-.12.6-.18,1.57-.18,2.77,0,1.05.06,1.87.12,2.55-.06,4.12-.12,7.26-.12,9.51l.06,9.66-.06,4.87v8.68c0,.22.06.52.12.9,1.19.3,2.27.52,3.22.6.18.07.78.15,1.79.3.06.75.12,1.35.12,1.87v1.2c-.3,0-.48.08-.6.08-.66.07-1.01.07-1.07.07-.18,0-.42-.07-.78-.15-.3,0-1.55-.15-3.88-.45l-5.19-.07c-1.01,0-2.51.07-4.47.37-1.25.15-2.09.22-2.51.22h0ZM297.62,482.46c.3-.15.89-.3,1.85-.45,1.79-.37,2.98-.9,3.58-1.57.36-.45.54-1.2.66-2.4,0-.3.06-4.04.18-11.15l-.06-4.04.06-4.87-.06-12.5v-1.42c0-.67-.12-1.12-.42-1.5-.12-.15-.54-.22-1.13-.22-.54,0-1.07.08-1.79.22-.83,0-1.61.15-2.33.3-.12,0-.3,0-.54.07v-3.22c1.13-.45,2.8-.9,4.95-1.35,3.52-.67,7.88-1.05,13.01-1.05,4.36,0,7.52.3,9.49.9,3.04.97,5.49,2.4,7.4,4.27,2.57,2.47,4.47,5.39,5.73,8.68,1.25,3.29,1.91,6.89,1.91,10.78,0,4.94-.84,9.21-2.57,12.73-1.73,3.52-4.18,6.29-7.4,8.46-2.21,1.5-5.31,2.25-9.13,2.25l-6.03-.3-1.73-.08-2.39.08-.66-.08-2.45.08-3.28-.08c-.12,0-1.07.08-2.92.22-.66.07-1.49.07-2.45.15h-1.43c-.06-.52-.06-1.5-.06-2.92h0ZM311.76,441.66v7.86l.06,5.39v4.64l-.06,3.44.12,5.84-.12,3.59c0,3.29.48,5.61,1.49,6.81,1.43,1.72,3.4,2.54,5.97,2.54,1.91,0,3.34-.22,4.24-.67,1.91-.97,3.4-2.17,4.53-3.74,1.07-1.5,1.97-3.67,2.51-6.51.6-2.77.89-5.69.89-8.68,0-4.94-.6-8.98-1.85-12.13-1.25-3.07-2.98-5.47-5.19-7.04-2.15-1.57-4.65-2.32-7.46-2.32-1.97,0-3.7.3-5.13.97h0ZM342.01,485.46l.06-2.55c.36-.15,1.01-.3,1.97-.52,1.49-.37,2.39-.67,2.68-.97.36-.3.72-.97,1.19-2.1l5.85-19.31,6.92-22.76h3.16l.3.67,5.01,15.05c1.19,3.22,2.21,6.29,3.1,9.28.89,2.99,1.67,5.46,2.33,7.41.42,1.12.95,2.84,1.61,5.17.36,1.2.9,2.77,1.61,4.64.36,1.05.66,1.65.89,1.8.36.37.9.6,1.67.75.84.07,1.67.37,2.63.82.06.82.12,1.42.12,1.8v.82c-1.49,0-3.04-.08-4.77-.3-1.73-.15-3.28-.22-4.65-.22-1.55,0-2.68,0-3.34.07l-4.95.3-1.43.07c0-.82.06-1.65.12-2.47l3.22-.82c.95-.37,1.55-.6,1.67-.75.18-.22.3-.52.3-.82,0-.37-.06-.67-.12-.97l-1.19-3.59-2.27-7.19h-11.16c-.42,1.12-1.25,4.04-2.57,8.53-.36,1.27-.54,2.17-.54,2.62,0,.67.12,1.12.42,1.35.42.52,1.31.82,2.57.97.18.07.84.22,2.09.45v1.8c0,.22,0,.52-.06.82-1.19,0-4.06-.22-8.59-.6l-1.19.3c-1.43.3-2.8.45-4.12.45h-.54ZM355.73,464.87c4.53.08,7.22.15,8,.15l.72-.07c-.54-2.17-1.31-4.64-2.27-7.56-.9-2.92-1.67-5.09-2.27-6.59l-4.18,14.07h0ZM383.36,482.46c.3-.15.89-.3,1.85-.45,1.79-.37,2.98-.9,3.58-1.57.36-.45.54-1.2.66-2.4,0-.3.06-4.04.18-11.15l-.06-4.04.06-4.87-.06-12.5v-1.42c0-.67-.12-1.12-.42-1.5-.12-.15-.54-.22-1.13-.22-.54,0-1.07.08-1.79.22-.84,0-1.61.15-2.33.3-.12,0-.3,0-.54.07v-3.22c1.13-.45,2.8-.9,4.95-1.35,3.52-.67,7.88-1.05,13.01-1.05,4.36,0,7.52.3,9.49.9,3.04.97,5.49,2.4,7.4,4.27,2.57,2.47,4.47,5.39,5.73,8.68,1.25,3.29,1.91,6.89,1.91,10.78,0,4.94-.84,9.21-2.57,12.73-1.73,3.52-4.18,6.29-7.4,8.46-2.21,1.5-5.31,2.25-9.13,2.25l-6.03-.3-1.73-.08-2.39.08-.66-.08-2.45.08-3.28-.08c-.12,0-1.07.08-2.92.22-.66.07-1.49.07-2.45.15h-1.43c-.06-.52-.06-1.5-.06-2.92h0ZM397.5,441.66v7.86l.06,5.39v4.64l-.06,3.44.12,5.84-.12,3.59c0,3.29.48,5.61,1.49,6.81,1.43,1.72,3.4,2.54,5.97,2.54,1.91,0,3.34-.22,4.24-.67,1.91-.97,3.4-2.17,4.53-3.74,1.07-1.5,1.97-3.67,2.51-6.51.6-2.77.89-5.69.89-8.68,0-4.94-.6-8.98-1.85-12.13-1.25-3.07-2.98-5.47-5.19-7.04-2.15-1.57-4.65-2.32-7.46-2.32-1.97,0-3.7.3-5.13.97h0ZM429.72,438.14c1.13.08,2.09.15,2.86.3,1.55.3,3.34.45,5.37.45.72,0,2.51-.07,5.37-.22,4.36-.22,8.23-.3,11.75-.3l5.25-.07c1.19,0,2.92.15,5.25.52.36.52.54,1.2.54,2.02v7.49l.06,1.5v.67l-1.19.08c-.18,0-.48,0-1.01-.08-.18-.52-.42-1.2-.72-2.17l-1.19-2.62c-.42-1.12-1.07-2.25-1.85-3.37-.54-.15-1.13-.3-1.91-.3-.18,0-.78-.08-1.79-.15-1.79-.22-3.76-.3-5.85-.3-2.33,0-4.47.08-6.32.15v17.82c.48.08.9.15,1.25.15,3.46,0,5.91-.07,7.4-.22,1.43-.22,2.39-.45,2.68-.75.36-.3.72-.82.95-1.57.18-.52.54-2.32,1.01-5.39h2.09c.06,2.17.12,3.82.12,4.94v4.94c-.06.75-.06,1.27-.06,1.72,0,.67.06,1.72.12,3.14.06,1.42.06,2.55.06,3.22v.82h-2.09c-.06-.37-.24-1.2-.42-2.4-.42-2.25-.78-3.67-1.07-4.27-.24-.37-.6-.75-1.13-.97-.42-.15-1.85-.22-4.3-.22-2.98,0-5.13.07-6.62.3v16.32c0,.97.24,1.57.78,1.95.78.52,3.22.75,7.34.75,2.74,0,5.01-.22,6.92-.75,1.31-.37,2.45-1.2,3.46-2.47,1.31-1.65,2.39-3.89,3.28-6.89.6-.07,1.07-.07,1.49-.07h.95c-.06.67-.12,1.12-.12,1.57l-.18,1.12-1.07,6.89-.54,4.12c-1.25.08-2.27.15-2.98.15-1.07,0-4-.15-8.71-.37-3.34-.15-7.34-.22-11.99-.22-2.33,0-5.19.15-8.59.37h-1.25l-3.52.15v-2.55c.36-.15,1.13-.22,2.21-.37,2.03-.3,3.4-.75,4.18-1.2.18-.67.3-1.57.3-2.69v-3.22l-.06-13.77v-4.12l-.12-5.84.06-4.12-.3-4.57c0-.08,0-.37-.06-.75-.18-.22-.48-.37-.83-.45-.24-.07-.54-.15-.9-.22-1.13-.3-2.15-.45-3.22-.52-.36,0-.78-.07-1.25-.15l.12-2.92Z"/>
        <path class="cls-1" d="M.18,507.75c1.74.09,3.21.18,4.4.37,2.38.37,5.13.55,8.25.55,1.1,0,3.85-.09,8.25-.27,6.69-.28,12.65-.37,18.06-.37l8.07-.09c1.83,0,4.49.18,8.07.64.55.64.82,1.47.82,2.47v9.17l.09,1.83v.83l-1.83.09c-.27,0-.73,0-1.56-.09-.27-.64-.64-1.47-1.1-2.66l-1.83-3.21c-.64-1.38-1.65-2.75-2.84-4.13-.82-.18-1.74-.37-2.93-.37-.27,0-1.19-.09-2.75-.18-2.75-.27-5.78-.37-8.98-.37-3.58,0-6.88.09-9.72.18v21.82c.73.09,1.38.18,1.93.18,5.32,0,9.08-.09,11.37-.27,2.2-.28,3.67-.55,4.13-.92.55-.37,1.1-1.01,1.47-1.93.27-.64.82-2.84,1.56-6.6h3.21c.09,2.66.18,4.68.18,6.05v6.05c-.09.92-.09,1.56-.09,2.11,0,.83.09,2.11.18,3.85.09,1.74.09,3.12.09,3.94v1.01h-3.21c-.09-.46-.37-1.47-.64-2.93-.64-2.75-1.19-4.49-1.65-5.23-.37-.46-.92-.92-1.74-1.19-.64-.18-2.84-.28-6.6-.28-4.58,0-7.88.09-10.18.37v19.99c0,1.19.37,1.92,1.19,2.38,1.19.64,4.95.92,11.28.92,4.22,0,7.7-.28,10.63-.92,2.02-.46,3.76-1.47,5.32-3.03,2.02-2.02,3.67-4.77,5.04-8.43.92-.09,1.65-.09,2.29-.09h1.47c-.09.82-.18,1.38-.18,1.93l-.28,1.38-1.65,8.43-.82,5.04c-1.93.09-3.48.18-4.58.18-1.65,0-6.14-.18-13.38-.46-5.13-.18-11.28-.28-18.43-.28-3.58,0-7.98.18-13.2.46h-1.93l-5.41.18v-3.12c.55-.18,1.74-.27,3.39-.46,3.12-.37,5.23-.92,6.42-1.47.28-.83.46-1.93.46-3.3v-3.94l-.09-16.87v-5.04l-.18-7.15.09-5.04-.46-5.59c0-.09,0-.46-.09-.92-.27-.27-.73-.46-1.28-.55-.37-.09-.82-.18-1.38-.28-1.74-.37-3.3-.55-4.95-.64-.55,0-1.19-.09-1.93-.18l.18-3.58H.18ZM65.55,562.02c.46-.18,1.38-.37,2.84-.55,2.75-.46,4.58-1.1,5.5-1.93.55-.55.83-1.47,1.01-2.93,0-.37.09-4.95.27-13.66l-.09-4.95.09-5.96-.09-15.31v-1.74c0-.83-.18-1.38-.64-1.83-.18-.18-.83-.27-1.74-.27-.82,0-1.65.09-2.75.27-1.28,0-2.48.18-3.58.37-.18,0-.46,0-.83.09v-3.94c1.74-.55,4.31-1.1,7.61-1.65,5.41-.82,12.1-1.28,19.99-1.28,6.69,0,11.55.37,14.58,1.1,4.68,1.19,8.43,2.93,11.37,5.23,3.94,3.03,6.88,6.6,8.8,10.63,1.92,4.03,2.93,8.43,2.93,13.2,0,6.05-1.28,11.28-3.94,15.58-2.66,4.31-6.42,7.7-11.37,10.36-3.39,1.83-8.16,2.75-14.03,2.75l-9.26-.37-2.66-.09-3.67.09-1.01-.09-3.76.09-5.04-.09c-.18,0-1.65.09-4.49.27-1.01.09-2.29.09-3.76.18h-2.2c-.09-.64-.09-1.83-.09-3.58h0ZM87.28,512.06v9.63l.09,6.6v5.68l-.09,4.22.18,7.15-.18,4.4c0,4.03.73,6.88,2.29,8.34,2.2,2.11,5.23,3.12,9.17,3.12,2.93,0,5.13-.27,6.51-.82,2.93-1.19,5.23-2.66,6.97-4.58,1.65-1.83,3.03-4.49,3.85-7.98.92-3.39,1.37-6.97,1.37-10.63,0-6.05-.92-11-2.84-14.85-1.93-3.76-4.58-6.69-7.98-8.62-3.3-1.92-7.15-2.84-11.46-2.84-3.03,0-5.68.37-7.88,1.19h0ZM136.69,511.51l-.09-3.58c.55,0,1.1-.09,1.65-.09,1.47,0,3.12.09,4.68.18,4.03.18,6.33.27,6.97.27,2.38,0,4.77-.09,7.06-.09,2.29-.09,4.31-.18,6.05-.18,1.83-.09,3.03-.09,3.67-.09l-.09.55.09,2.57v.37c-1.65.28-3.39.37-5.23.37-1.65,0-2.75.28-3.3,1.01-.37.37-.55,2.2-.55,5.32,0,.92,0,1.74.09,2.29v1.65l-.09,4.22.28,3.58-.18,7.7.55,11.28c.18,3.21.92,5.87,2.2,8.07.92,1.56,2.29,2.84,4.03,3.67,2.48,1.28,4.95,1.93,7.33,1.93,2.93,0,5.59-.37,8.07-1.1,1.47-.46,2.84-1.1,4.13-2.02,1.28-1.01,2.2-1.83,2.66-2.66,1.1-1.56,1.83-3.12,2.29-4.58.55-1.92.82-5.04.82-9.17,0-7.15-.37-15.31-1.19-24.39l-.18-2.29c-.09-1.83-.37-2.93-1.01-3.58-.92-.92-2.02-1.38-3.21-1.38l-4.22.09-.55-.18.09-3.39h3.58l8.53.37c2.93,0,5.59-.09,8.25-.37l.73.09c.18,1.01.28,1.65.28,2.02s-.09.73-.18,1.19c-1.1.37-2.29.46-3.48.55-2.02.27-3.12.46-3.3.64-.46.37-.64.92-.64,1.65,0,.55.09,1.38.18,2.38,0,.73.09,2.02.09,3.85v2.48c0,.64.09,1.19.09,1.83.09,2.2.18,4.31.18,6.6l.46,9.08c0,6.05-.18,10.18-.64,12.19-.37,2.11-.92,3.67-1.65,4.86-1.1,1.83-2.66,3.48-4.77,4.95-2.02,1.56-4.49,2.75-7.61,3.67-3.03.82-6.6,1.28-10.63,1.28-4.58,0-8.62-.64-11.92-1.83-3.3-1.28-5.78-2.93-7.52-4.95-1.65-2.02-2.84-4.58-3.48-7.79-.37-2.2-.64-5.41-.64-9.53v-21.36c0-5.04-.27-7.88-.73-8.53-.64-.92-2.66-1.47-6.05-1.56-.83,0-1.38-.09-1.93-.09h0ZM203.43,565.69l.09-3.12c.55-.18,1.56-.37,3.03-.64,2.29-.46,3.67-.82,4.13-1.19.55-.37,1.1-1.19,1.83-2.57l8.98-23.65,10.63-27.87h4.86l.46.83,7.7,18.43c1.83,3.94,3.39,7.7,4.77,11.37,1.38,3.67,2.57,6.69,3.58,9.08.64,1.38,1.47,3.48,2.48,6.33.55,1.47,1.38,3.39,2.48,5.68.55,1.28,1.01,2.02,1.37,2.2.55.46,1.38.73,2.57.92,1.28.09,2.57.46,4.03,1.01.09,1.01.18,1.74.18,2.2v1.01c-2.29,0-4.68-.09-7.33-.37-2.66-.18-5.04-.28-7.15-.28-2.38,0-4.13,0-5.13.09l-7.61.37-2.2.09c0-1.01.09-2.02.18-3.03l4.95-1.01c1.47-.46,2.38-.73,2.57-.92.27-.27.46-.64.46-1.01,0-.46-.09-.82-.18-1.19l-1.83-4.4-3.48-8.8h-17.14c-.64,1.38-1.93,4.95-3.94,10.45-.55,1.56-.83,2.66-.83,3.21,0,.83.18,1.38.64,1.65.64.64,2.02,1.01,3.94,1.19.27.09,1.28.28,3.21.55v2.2c0,.28,0,.64-.09,1.01-1.83,0-6.23-.28-13.2-.73l-1.83.37c-2.2.37-4.31.55-6.33.55h-.82ZM224.51,540.48c6.97.09,11.09.18,12.28.18l1.1-.09c-.83-2.66-2.02-5.68-3.48-9.26-1.38-3.58-2.57-6.23-3.48-8.07l-6.42,17.23h0ZM268.61,562.84c.73-.37,1.93-.73,3.39-.92,1.56-.18,2.93-.55,4.13-.92.18-.64.27-1.1.27-1.38.09-.37.09-1.83.09-4.22v-9.99l.09-5.41-.09-4.13.09-2.38c.09-3.3.09-6.33.09-9.17,0-6.14-.09-10.08-.18-11.83l-2.66-.55c-2.38-.18-3.94-.27-4.77-.46l-.09-2.66.18-.46c1.47-.28,2.84-.37,4.13-.37.64,0,2.11,0,4.13-.09,2.2.18,3.3.28,3.48.28l2.38-.18,5.59-.18c3.48-.37,7.24-.55,11.09-.55,6.14,0,11,1.56,14.58,4.68,3.58,3.12,5.41,6.69,5.41,10.73,0,2.93-.92,5.68-2.93,8.16-1.93,2.48-4.86,4.31-8.89,5.59.37.64.82,1.38,1.38,2.2,1.28,1.74,2.29,3.3,3.02,4.49l7.15,11.64c1.83,3.03,2.93,4.86,3.48,5.32.55.55,1.74,1.1,3.48,1.74,1.28.46,2.29,1.01,3.03,1.47.18.55.28,1.01.28,1.38v1.01h-2.11l-2.38-.18h-1.83c-.92-.09-2.11-.18-3.48-.18l-4.49-.09c-.37,0-1.38.09-3.12.28-.82.09-1.47.09-1.92.18l-1.56-2.93c-1.28-2.2-2.11-3.94-2.66-5.04-1.28-2.84-3.58-7.43-6.69-13.75-1.56-2.93-2.57-4.58-3.12-4.95-.92-.64-2.48-.92-4.68-.92-.55,0-1.56,0-3.03.09-.09.82-.18,1.93-.18,3.12l.27,9.9-.27,8.34c.82.55,1.92.92,3.21,1.19,2.38.46,4.4,1.01,6.05,1.65,0,1.47-.09,2.66-.18,3.39-.55,0-.92-.09-1.1-.09l-1.83.09c-6.42-.55-10.18-.82-11.37-.82h-1.65l-6.23.46c-1.83.18-3.58.28-5.13.28h-1.93c-.09-.73-.09-1.19-.09-1.47s.09-.73.18-1.38h0ZM288.69,533.97c1.47.09,2.48.09,3.12.09,5.13,0,8.71-.92,10.82-2.75,2.11-1.83,3.21-4.22,3.21-7.24,0-1.93-.28-3.67-.73-5.32-.55-1.65-1.19-2.84-2.02-3.67-1.1-1.19-2.48-2.02-4.31-2.66-1.28-.46-3.39-.64-6.23-.64-1.38,0-2.57.09-3.58.18l-.09.92.09,5.96-.18,3.67.09,4.86c-.09,1.38-.09,3.21-.18,5.32v1.28h0ZM330.95,562.02c.46-.18,1.38-.37,2.84-.55,2.75-.46,4.58-1.1,5.5-1.93.55-.55.82-1.47,1.01-2.93,0-.37.09-4.95.27-13.66l-.09-4.95.09-5.96-.09-15.31v-1.74c0-.83-.18-1.38-.64-1.83-.18-.18-.82-.27-1.74-.27-.82,0-1.65.09-2.75.27-1.28,0-2.48.18-3.58.37-.18,0-.46,0-.83.09v-3.94c1.74-.55,4.31-1.1,7.61-1.65,5.41-.82,12.1-1.28,19.99-1.28,6.69,0,11.55.37,14.58,1.1,4.68,1.19,8.43,2.93,11.37,5.23,3.94,3.03,6.88,6.6,8.8,10.63,1.93,4.03,2.93,8.43,2.93,13.2,0,6.05-1.28,11.28-3.94,15.58-2.66,4.31-6.42,7.7-11.37,10.36-3.39,1.83-8.16,2.75-14.03,2.75l-9.26-.37-2.66-.09-3.67.09-1.01-.09-3.76.09-5.04-.09c-.18,0-1.65.09-4.49.27-1.01.09-2.29.09-3.76.18h-2.2c-.09-.64-.09-1.83-.09-3.58h0ZM352.68,512.06v9.63l.09,6.6v5.68l-.09,4.22.18,7.15-.18,4.4c0,4.03.73,6.88,2.29,8.34,2.2,2.11,5.23,3.12,9.17,3.12,2.93,0,5.13-.27,6.51-.82,2.93-1.19,5.23-2.66,6.97-4.58,1.65-1.83,3.03-4.49,3.85-7.98.92-3.39,1.38-6.97,1.38-10.63,0-6.05-.92-11-2.84-14.85-1.93-3.76-4.58-6.69-7.98-8.62-3.3-1.92-7.15-2.84-11.46-2.84-3.03,0-5.68.37-7.88,1.19h0ZM404.38,535.98c0-3.76.73-7.43,2.2-11.18,1.01-2.66,2.48-5.13,4.31-7.33,1.92-2.29,4.22-4.31,7.06-6.05s5.78-2.93,8.71-3.76c2.93-.73,6.23-1.1,9.9-1.1,6.14,0,11.55,1.19,16.13,3.48,4.58,2.29,8.16,5.5,10.73,9.44,3.48,5.13,5.13,10.63,5.13,16.23,0,8.53-2.84,15.68-8.62,21.73-5.68,6.05-13.66,9.08-23.93,9.08-2.57,0-4.95-.18-7.15-.46-1.65-.27-3.12-.64-4.31-1.01-2.29-.73-3.58-1.19-3.85-1.28-3.21-1.93-5.87-3.76-7.79-5.68-2.02-2.02-3.67-4.13-5.04-6.6-.73-1.38-1.56-3.85-2.57-7.43-.55-2.29-.92-5.04-.92-8.07h0ZM434.82,510.96c-2.57,0-4.86.64-6.88,1.83-2.02,1.19-3.58,2.47-4.58,3.94-1.65,2.48-2.84,5.23-3.58,8.16-.73,2.93-1.1,6.51-1.1,10.73,0,2.57.09,4.4.37,5.5,0,.37.09,1.01.18,1.83.27,2.2.64,3.85,1.01,4.86,1.28,3.76,2.2,6.14,2.75,7.06.83,1.47,2.2,3.03,3.94,4.49.92.82,2.2,1.47,3.85,2.11,1.74.64,3.48,1.01,5.13,1.01,3.21,0,6.23-.73,8.98-2.29,2.75-1.47,4.95-4.03,6.69-7.7,1.65-3.58,2.47-8.25,2.47-14.12,0-2.38-.18-5.59-.46-9.72l-.27-.83c-.09-.18-.18-.83-.46-1.83-1.1-4.86-3.21-8.62-6.33-11.18-3.12-2.57-7.06-3.85-11.73-3.85Z"/>
        <path class="cls-1" d="M.13,635.39l.08-2.48c3.09-.38,4.97-1.05,5.87-1.88.53-.6.9-2.11,1.2-4.59l.53-13.02.53-13.32c.08-.83.08-1.28.08-1.51,0-3.39-.23-5.34-.6-5.87-.38-.6-1.96-1.05-4.67-1.58-.75-.15-1.28-.3-1.66-.38-.08-.6-.08-1.13-.08-1.58v-1.2c.9-.08,1.96-.08,3.16-.08l10.69.38c.23,0,.6.08.98.08l1.73.08c.38.53.83,1.13,1.2,1.96.9,1.81,2.11,4.36,3.69,7.83l.38,1.05,5.72,12.42c.15.3.38.68.6,1.28.45.83.83,1.66,1.2,2.48.38.83.83,1.66,1.28,2.63.38.9.83,1.81,1.13,2.56.38-.53.68-1.2,1.05-1.88.98-2.33,1.88-4.36,2.86-6.25,1.58-3.39,3.76-8.43,6.55-15.35.45-1.05,1.2-2.71,2.18-4.97,1.05-2.18,1.58-3.39,1.73-3.54.15-.15.6-.3,1.28-.3h1.13c1.28-.08,2.78-.15,4.59-.15,2.56-.08,4.59-.15,6.17-.23,1.58-.15,2.41-.23,2.63-.23s.53,0,.9.08v.83l-.08,1.13v.98c-2.33.3-4.21.83-5.64,1.51-1.05.53-1.51,1.13-1.51,1.81v.6l.6,11.21c.08,1.05.23,6.17.53,15.35.08,2.03.3,4.67.53,7.83,0,.38.08.68.08.9,0,.53.15.9.38,1.05.23.23,2.48.9,6.7,2.11,0,.38.08.68.08.9,0,.53-.08,1.05-.08,1.58-.68,0-2.33-.15-4.97-.45-2.71-.23-5.19-.38-7.53-.38-3.54,0-6.92.15-10.31.45-.45,0-.83.08-1.28.08l.08-2.48c.98-.38,2.33-.75,3.99-.98,1.13-.23,1.88-.53,2.18-.98.3-.53.45-1.81.45-3.91v-2.18c-.15-2.56-.23-6.1-.23-10.69l-.68-13.02c0-1.81-.15-3.09-.23-3.76l-9.03,21c-.23.45-.53,1.2-.98,2.11-.53,1.2-.9,2.03-1.13,2.48-1.88,4.52-3.16,7.98-3.84,10.39-.23.6-.53,1.43-.9,2.41h-3.09l-1.96-5.64c-.6-1.43-1.58-3.69-3.01-6.7-.83-1.73-1.43-3.16-1.88-4.21-.23-.45-.38-.75-.53-.98l-.38-.9c-.08-.15-.08-.3-.15-.38l-5.42-11.82-3.31-7.22-.38,17.38-.3,11.29c0,1.88.38,3.24,1.05,3.99.68.83,2.18,1.51,4.52,2.03l1.73.45v2.71c-1.43,0-2.93-.15-4.59-.3-1.58-.23-3.76-.3-6.4-.3-.6,0-3.01.08-7.22.3H.13ZM70.87,611.08c0-3.09.6-6.1,1.81-9.18.83-2.18,2.03-4.21,3.54-6.02,1.58-1.88,3.46-3.54,5.79-4.97,2.33-1.43,4.74-2.41,7.15-3.09,2.41-.6,5.12-.9,8.13-.9,5.04,0,9.48.98,13.25,2.86,3.76,1.88,6.7,4.52,8.81,7.75,2.86,4.21,4.21,8.73,4.21,13.32,0,7-2.33,12.87-7.07,17.84-4.67,4.97-11.21,7.45-19.64,7.45-2.11,0-4.06-.15-5.87-.38-1.35-.23-2.56-.53-3.54-.83-1.88-.6-2.93-.98-3.16-1.05-2.63-1.58-4.82-3.09-6.4-4.67-1.66-1.66-3.01-3.39-4.14-5.42-.6-1.13-1.28-3.16-2.11-6.1-.45-1.88-.75-4.14-.75-6.62h0ZM95.86,590.54c-2.11,0-3.99.53-5.64,1.51-1.66.98-2.93,2.03-3.76,3.24-1.35,2.03-2.33,4.29-2.93,6.7-.6,2.41-.9,5.34-.9,8.81,0,2.11.08,3.61.3,4.52,0,.3.08.83.15,1.51.23,1.81.53,3.16.83,3.99,1.05,3.09,1.81,5.04,2.26,5.79.68,1.2,1.81,2.48,3.24,3.69.75.68,1.81,1.2,3.16,1.73,1.43.53,2.86.83,4.21.83,2.63,0,5.12-.6,7.38-1.88,2.26-1.2,4.06-3.31,5.49-6.32,1.35-2.94,2.03-6.77,2.03-11.59,0-1.96-.15-4.59-.38-7.98l-.23-.68c-.08-.15-.15-.68-.38-1.51-.9-3.99-2.63-7.07-5.19-9.18-2.56-2.11-5.79-3.16-9.63-3.16h0ZM127.54,590.76l-.15-2.56h3.16l1.05-.08c1.5-.08,2.48-.08,3.09-.08.23,0,1.13,0,2.56.08h.83c.23,0,.98,0,2.26-.08,1.35,0,2.11-.08,2.26-.08.3,0,.68.08,1.2.08,3.76,3.46,6.85,6.4,9.18,8.88,2.41,2.48,11.06,11.14,26.04,26.04v-.98l-.15-4.21c-.08-2.56-.15-4.52-.3-6.02-.08-1.43-.15-3.16-.23-5.19,0-2.03-.08-3.84-.23-5.49-.3-3.24-.45-5.12-.45-5.57,0-1.58-.23-2.56-.53-2.94-.53-.53-1.66-.9-3.54-1.2-1.35-.23-2.33-.53-3.01-.83l.08-2.18.9-.15,7.22-.15,7.98-.3h1.58v2.41c-.53.3-1.13.53-1.73.68-1.51.38-2.41.6-2.63.75-1.2.68-1.88,1.13-2.03,1.28-.15.3-.3.75-.3,1.35,0,.15,0,.68.08,1.58,0,.45.08,1.43.08,3.09,0,3.54.08,6.4.3,8.43,0,.68.07,1.43.07,2.26l.45,12.94v6.4l.15,1.96-.15,1.96c.08.98.15,1.58.15,1.81v1.96l-4.21.15-4.37-4.52-8.96-8.88-6.25-6.25-4.59-4.74c-3.01-2.93-5.72-5.49-8.13-7.75l-6.02-5.42.38,13.62v5.19l.23,4.82c.08,2.03.15,4.14.38,6.55.08.6.15,1.05.23,1.28.08.3.15.68.38,1.13.98.38,3.09.6,6.25.83.23,0,.6.08.98.23l.15,3.09-1.43.08c-.83,0-3.24-.23-7.45-.6-3.91.08-6.55.15-7.83.23-1.28.08-2.03.15-2.11.15-.3,0-.75-.08-1.2-.15-.08-.6-.08-1.05-.08-1.5v-1.35c.68-.15,1.28-.23,1.73-.23.15,0,.6.08,1.43.08,2.03,0,3.24-.15,3.69-.45.38-.3.53-1.13.6-2.48.15-3.84.23-6.25.23-7.07v-2.03l.08-11.97-.08-7.45c-.08-2.86-.23-4.82-.6-5.95-.15-.53-.38-1.05-.83-1.43-.83-.9-1.81-1.58-2.86-1.96-.6-.3-2.26-.68-4.97-1.05h0ZM192.49,632.45c.38-.15,1.13-.3,2.33-.45,2.26-.38,3.76-.9,4.52-1.58.45-.45.68-1.2.83-2.41,0-.3.08-4.06.23-11.21l-.08-4.06.08-4.89-.08-12.57v-1.43c0-.68-.15-1.13-.53-1.51-.15-.15-.68-.23-1.43-.23-.68,0-1.35.08-2.26.23-1.05,0-2.03.15-2.93.3-.15,0-.38,0-.68.08v-3.24c1.43-.45,3.54-.9,6.25-1.35,4.44-.68,9.93-1.05,16.41-1.05,5.49,0,9.48.3,11.97.9,3.84.98,6.92,2.41,9.33,4.29,3.24,2.48,5.64,5.42,7.22,8.73,1.58,3.31,2.41,6.92,2.41,10.84,0,4.97-1.05,9.26-3.24,12.79-2.18,3.54-5.27,6.32-9.33,8.5-2.78,1.5-6.7,2.26-11.51,2.26l-7.6-.3-2.18-.08-3.01.08-.83-.08-3.09.08-4.14-.08c-.15,0-1.35.08-3.69.23-.83.08-1.88.08-3.09.15h-1.81c-.08-.53-.08-1.5-.08-2.93h0ZM210.33,591.44v7.9l.08,5.42v4.67l-.08,3.46.15,5.87-.15,3.61c0,3.31.6,5.64,1.88,6.85,1.81,1.73,4.29,2.56,7.53,2.56,2.41,0,4.21-.23,5.34-.68,2.41-.98,4.29-2.18,5.72-3.76,1.35-1.51,2.48-3.69,3.16-6.55.75-2.78,1.13-5.72,1.13-8.73,0-4.97-.75-9.03-2.33-12.19-1.58-3.09-3.76-5.49-6.55-7.07-2.71-1.58-5.87-2.33-9.41-2.33-2.48,0-4.67.3-6.47.98h0ZM251.19,632.45c.75-.23,1.81-.45,3.16-.68,1.43-.23,2.26-.3,2.48-.3.9,0,1.58-.15,1.88-.45.15-.6.23-1.05.23-1.43l-.08-4.74.23-4.82v-3.01l.08-3.61-.08-3.84.15-8.2v-4.21c-.15-2.63-.3-3.99-.53-4.29-.15-.23-.83-.6-2.11-.98-.07,0-.53-.23-1.35-.53-.6-.23-1.2-.45-1.66-.53-.83-.23-1.43-.45-1.81-.75-.08-.68-.08-1.13-.08-1.51,0-.15,0-.45.08-.9.15-.08.45-.15.68-.15.6,0,2.71.08,6.4.3h5.27l3.84.08c1.73,0,3.91-.08,6.55-.3.75-.08,1.2-.08,1.35-.08.38,0,.6.08.75.3.23.23.3.68.3,1.43,0,.53-.15.9-.38,1.2-.15.15-.68.3-1.66.45l-4.59,1.05c-.07.08-.3.15-.6.3-.08.15-.15.3-.23.45v1.05l-.15,2.33v1.05c0,.08,0,.75-.08,2.03v2.94c.08,1.43.08,2.71.08,3.84,0,1.28,0,2.71-.08,4.36-.08.6-.08,1.43-.08,2.41l-.15,17.46c0,.75.15,1.2.45,1.43l3.54.15,2.18-.08,2.26.08c3.99,0,7.07-.45,9.33-1.35,1.66-.68,2.78-1.35,3.24-2.11.83-.68,1.51-1.51,2.03-2.33.53-.9,1.13-2.33,1.81-4.29h1.2c.6,0,1.2.08,1.96.15v1.05c0,1.73-.23,4.82-.68,9.26-.15,1.73-.3,2.78-.53,3.16-.53.15-.9.15-1.05.15h-1.35l-1.88.08c-.23,0-1.66-.08-4.36-.3-.53,0-2.86-.08-7.07-.23-4.21-.15-8.28-.23-12.34-.23l-7.45.23c-2.86.08-5.57.15-8.05.38h-.53c-.15,0-.45,0-.75-.07-.08-.23-.08-.45-.08-.68,0-.98.08-1.73.3-2.18h0ZM296.27,635.46h.68c1.66,0,3.39-.15,5.19-.45l1.5-.3c5.72.38,9.33.6,10.84.6.08-.3.08-.6.08-.83v-1.81c-1.58-.23-2.41-.38-2.63-.45-1.58-.15-2.71-.45-3.24-.98-.38-.23-.53-.68-.53-1.35,0-.45.23-1.35.68-2.63,1.66-4.52,2.71-7.45,3.24-8.58h14.07l2.86,7.22,1.51,3.61c.08.3.15.6.15.98,0,.3-.15.6-.38.83-.15.15-.9.38-2.11.75l-4.06.83c-.07.83-.15,1.66-.15,2.48l1.81-.07,6.25-.3c.83-.08,2.26-.08,4.21-.08,1.73,0,3.69.08,5.87.23,2.18.23,4.14.3,6.02.3v-.83c0-.38-.08-.98-.15-1.81-1.2-.45-2.26-.75-3.31-.83-.98-.15-1.66-.38-2.11-.75-.3-.15-.68-.75-1.13-1.81-.9-1.88-1.58-3.46-2.03-4.67-.83-2.33-1.51-4.06-2.03-5.19-.83-1.96-1.81-4.44-2.93-7.45-1.13-3.01-2.41-6.1-3.91-9.33l-6.32-15.13-.38-.68h-3.99l-8.73,22.88-7.38,19.42c-.6,1.13-1.05,1.81-1.51,2.11-.38.3-1.51.6-3.39.98-1.2.23-2.03.38-2.48.53l-.08,2.56h0ZM313.58,614.77l5.27-14.15c.75,1.51,1.73,3.69,2.86,6.62,1.2,2.94,2.18,5.42,2.86,7.6l-.9.08c-.98,0-4.37-.08-10.08-.15h0ZM347,590.76l-.15-2.56h3.16l1.05-.08c1.5-.08,2.48-.08,3.09-.08.23,0,1.13,0,2.56.08h.83c.23,0,.98,0,2.26-.08,1.35,0,2.11-.08,2.26-.08.3,0,.68.08,1.2.08,3.76,3.46,6.85,6.4,9.18,8.88,2.41,2.48,11.06,11.14,26.04,26.04v-.98l-.15-4.21c-.08-2.56-.15-4.52-.3-6.02-.08-1.43-.15-3.16-.23-5.19,0-2.03-.08-3.84-.23-5.49-.3-3.24-.45-5.12-.45-5.57,0-1.58-.23-2.56-.53-2.94-.53-.53-1.66-.9-3.54-1.2-1.35-.23-2.33-.53-3.01-.83l.08-2.18.9-.15,7.22-.15,7.98-.3h1.58v2.41c-.53.3-1.13.53-1.73.68-1.51.38-2.41.6-2.63.75-1.2.68-1.88,1.13-2.03,1.28-.15.3-.3.75-.3,1.35,0,.15,0,.68.08,1.58,0,.45.08,1.43.08,3.09,0,3.54.07,6.4.3,8.43,0,.68.08,1.43.08,2.26l.45,12.94v6.4l.15,1.96-.15,1.96c.08.98.15,1.58.15,1.81v1.96l-4.21.15-4.37-4.52-8.96-8.88-6.25-6.25-4.59-4.74c-3.01-2.93-5.72-5.49-8.13-7.75l-6.02-5.42.38,13.62v5.19l.23,4.82c.08,2.03.15,4.14.38,6.55.08.6.15,1.05.23,1.28.08.3.15.68.38,1.13.98.38,3.09.6,6.25.83.23,0,.6.08.98.23l.15,3.09-1.43.08c-.83,0-3.24-.23-7.45-.6-3.91.08-6.55.15-7.83.23-1.28.08-2.03.15-2.11.15-.3,0-.75-.08-1.2-.15-.08-.6-.08-1.05-.08-1.5v-1.35c.68-.15,1.28-.23,1.73-.23.15,0,.6.08,1.43.08,2.03,0,3.24-.15,3.69-.45.38-.3.53-1.13.6-2.48.15-3.84.23-6.25.23-7.07v-2.03l.08-11.97-.08-7.45c-.08-2.86-.23-4.82-.6-5.95-.15-.53-.38-1.05-.83-1.43-.83-.9-1.81-1.58-2.86-1.96-.6-.3-2.26-.68-4.97-1.05h0ZM411.64,587.9c1.43.08,2.63.15,3.61.3,1.96.3,4.21.45,6.77.45.9,0,3.16-.08,6.77-.23,5.49-.23,10.39-.3,14.83-.3l6.62-.08c1.51,0,3.69.15,6.62.53.45.53.68,1.2.68,2.03v7.53l.08,1.51v.68l-1.5.08c-.23,0-.6,0-1.28-.08-.23-.53-.53-1.2-.9-2.18l-1.51-2.63c-.53-1.13-1.35-2.26-2.33-3.39-.68-.15-1.43-.3-2.41-.3-.23,0-.98-.08-2.26-.15-2.26-.23-4.74-.3-7.38-.3-2.93,0-5.64.08-7.98.15v17.91c.6.08,1.13.15,1.58.15,4.36,0,7.45-.08,9.33-.23,1.81-.23,3.01-.45,3.39-.75.45-.3.9-.83,1.2-1.58.23-.53.68-2.33,1.28-5.42h2.63c.08,2.18.15,3.84.15,4.97v4.97c-.08.75-.08,1.28-.08,1.73,0,.68.08,1.73.15,3.16.08,1.43.08,2.56.08,3.24v.83h-2.63c-.08-.38-.3-1.2-.53-2.41-.53-2.26-.98-3.69-1.35-4.29-.3-.38-.75-.75-1.43-.98-.53-.15-2.33-.23-5.42-.23-3.76,0-6.47.08-8.35.3v16.41c0,.98.3,1.58.98,1.96.98.53,4.06.75,9.26.75,3.46,0,6.32-.23,8.73-.75,1.66-.38,3.09-1.2,4.37-2.48,1.66-1.66,3.01-3.91,4.14-6.92.75-.08,1.35-.08,1.88-.08h1.2c-.08.68-.15,1.13-.15,1.58l-.23,1.13-1.35,6.92-.68,4.14c-1.58.08-2.86.15-3.76.15-1.35,0-5.04-.15-10.99-.38-4.21-.15-9.26-.23-15.13-.23-2.93,0-6.55.15-10.84.38h-1.58l-4.44.15v-2.56c.45-.15,1.43-.23,2.78-.38,2.56-.3,4.29-.75,5.27-1.2.23-.68.38-1.58.38-2.71v-3.24l-.08-13.85v-4.14l-.15-5.87.08-4.14-.38-4.59c0-.08,0-.38-.08-.75-.23-.23-.6-.38-1.05-.45-.3-.08-.68-.15-1.13-.23-1.43-.3-2.71-.45-4.06-.53-.45,0-.98-.08-1.58-.15l.15-2.94Z"/>
      </g>
      <path class="cls-3" d="M42.48,62.41v40.05l87.08,87.69,44.7-.02,54.89-55.24c2.06-1.1,3.15-1.93,4.57-.92l56.07,55.55,45.03.33,86.08-86.94-.22-38.65-85.69,85.53-3.29,2.88-36.62.03c-2.82-.83-2.54.29-2.35-3.37l35.12-35.17v-18.43h-17.68l-34.94,35.04c-3.76,1.05-2.85.91-4.12-2.11l-.15-35.96L360.05,2.71h-40.03l-84.3,84.85c-2.08,1.79-3.03,3.11-5.35,1.47L144.38,2.71h-40.95l89.33,89.88-.03,38.09-19.07,20.07-2.47,2.29-36.14.07c-1.41.08-3.75-2.11-4.52-2.94L42.48,62.41Z"/>
      <path class="cls-2" d="M459,317.58l-109.72-109.81-43.94-.06-63.78,63.71.34,129.57,104.93-105.2c2.31-1.9,4.39-2.67,6.27-1.16l105.86,105.71.04-82.75Z"/>
      <path class="cls-2" d="M5.35,317.58l109.72-109.81,43.94-.06,63.78,63.71-.34,129.57-104.93-105.2c-2.31-1.9-4.39-2.67-6.27-1.16L5.39,400.33l-.04-82.75Z"/>
    </g>
  </g>
</svg>